<svg width="179" height="53" viewBox="0 0 179 53" xmlns="http://www.w3.org/2000/svg">
<path d="M34.784 14.272C34.448 13.936 33.824 13.48 32.912 12.904C32.048 12.328 30.968 11.776 29.672 11.248C28.424 10.72 27.056 10.264 25.568 9.88C24.08 9.448 22.568 9.232 21.032 9.232C18.344 9.232 16.304 9.736 14.912 10.744C13.568 11.752 12.896 13.168 12.896 14.992C12.896 16.384 13.328 17.488 14.192 18.304C15.056 19.12 16.352 19.816 18.08 20.392C19.808 20.968 21.968 21.592 24.56 22.264C27.92 23.08 30.824 24.088 33.272 25.288C35.768 26.44 37.664 27.976 38.96 29.896C40.304 31.768 40.976 34.264 40.976 37.384C40.976 40.12 40.472 42.472 39.464 44.44C38.456 46.36 37.064 47.92 35.288 49.12C33.512 50.32 31.496 51.208 29.24 51.784C26.984 52.312 24.584 52.576 22.04 52.576C19.496 52.576 16.952 52.312 14.408 51.784C11.864 51.256 9.416 50.512 7.064 49.552C4.712 48.544 2.552 47.344 0.584 45.952L4.976 37.384C5.408 37.816 6.176 38.392 7.28 39.112C8.384 39.784 9.728 40.48 11.312 41.2C12.896 41.872 14.624 42.448 16.496 42.928C18.368 43.408 20.264 43.648 22.184 43.648C24.872 43.648 26.912 43.192 28.304 42.28C29.696 41.368 30.392 40.072 30.392 38.392C30.392 36.856 29.84 35.656 28.736 34.792C27.632 33.928 26.096 33.184 24.128 32.56C22.16 31.888 19.832 31.168 17.144 30.4C13.928 29.488 11.24 28.48 9.08 27.376C6.92 26.224 5.312 24.784 4.256 23.056C3.2 21.328 2.672 19.168 2.672 16.576C2.672 13.072 3.488 10.144 5.12 7.792C6.8 5.392 9.056 3.592 11.888 2.392C14.72 1.144 17.864 0.519998 21.32 0.519998C23.72 0.519998 25.976 0.783997 28.088 1.312C30.248 1.84 32.264 2.536 34.136 3.4C36.008 4.264 37.688 5.2 39.176 6.208L34.784 14.272ZM69.3125 50.056C68.4965 50.392 67.5125 50.776 66.3605 51.208C65.2085 51.64 63.9605 51.976 62.6165 52.216C61.3205 52.504 60.0005 52.648 58.6565 52.648C56.8805 52.648 55.2485 52.336 53.7605 51.712C52.2725 51.088 51.0725 50.104 50.1605 48.76C49.2965 47.368 48.8645 45.568 48.8645 43.36V21.688H43.8965V14.272H48.8645V2.032H58.5125V14.272H66.4325V21.688H58.5125V40.12C58.5605 41.416 58.9205 42.352 59.5925 42.928C60.2645 43.504 61.1045 43.792 62.1125 43.792C63.1205 43.792 64.1045 43.624 65.0645 43.288C66.0245 42.952 66.7925 42.664 67.3685 42.424L69.3125 50.056ZM71.7453 40.84C71.7453 38.392 72.4173 36.256 73.7613 34.432C75.1533 32.56 77.0733 31.12 79.5213 30.112C81.9693 29.104 84.7773 28.6 87.9453 28.6C89.5293 28.6 91.1373 28.72 92.7693 28.96C94.4013 29.2 95.8173 29.584 97.0173 30.112V28.096C97.0173 25.696 96.2973 23.848 94.8573 22.552C93.4653 21.256 91.3773 20.608 88.5933 20.608C86.5293 20.608 84.5613 20.968 82.6893 21.688C80.8173 22.408 78.8493 23.464 76.7853 24.856L73.6893 18.52C76.1853 16.888 78.7293 15.664 81.3213 14.848C83.9613 14.032 86.7213 13.624 89.6013 13.624C94.9773 13.624 99.1533 14.968 102.129 17.656C105.153 20.344 106.665 24.184 106.665 29.176V41.2C106.665 42.208 106.833 42.928 107.169 43.36C107.553 43.792 108.153 44.056 108.969 44.152V52C108.105 52.144 107.313 52.264 106.593 52.36C105.921 52.456 105.345 52.504 104.865 52.504C102.945 52.504 101.481 52.072 100.473 51.208C99.5133 50.344 98.9133 49.288 98.6733 48.04L98.4573 46.096C96.8253 48.208 94.7853 49.84 92.3373 50.992C89.8893 52.144 87.3933 52.72 84.8493 52.72C82.3533 52.72 80.0973 52.216 78.0813 51.208C76.1133 50.152 74.5533 48.736 73.4013 46.96C72.2973 45.136 71.7453 43.096 71.7453 40.84ZM95.2173 42.784C95.7453 42.208 96.1773 41.632 96.5133 41.056C96.8493 40.48 97.0173 39.952 97.0173 39.472V35.656C95.8653 35.176 94.6173 34.816 93.2733 34.576C91.9293 34.288 90.6573 34.144 89.4573 34.144C86.9613 34.144 84.8973 34.696 83.2653 35.8C81.6813 36.856 80.8893 38.272 80.8893 40.048C80.8893 41.008 81.1533 41.92 81.6813 42.784C82.2093 43.648 82.9773 44.344 83.9853 44.872C84.9933 45.4 86.1933 45.664 87.5853 45.664C89.0253 45.664 90.4413 45.4 91.8333 44.872C93.2253 44.296 94.3533 43.6 95.2173 42.784ZM138.145 22.624C135.217 22.624 132.601 23.2 130.297 24.352C127.993 25.456 126.337 27.064 125.329 29.176V52H115.681V14.272H124.537V22.336C125.881 19.744 127.585 17.704 129.649 16.216C131.713 14.728 133.897 13.912 136.201 13.768C136.729 13.768 137.137 13.768 137.425 13.768C137.713 13.768 137.953 13.792 138.145 13.84V22.624ZM166.133 50.056C165.317 50.392 164.333 50.776 163.181 51.208C162.029 51.64 160.781 51.976 159.437 52.216C158.141 52.504 156.821 52.648 155.477 52.648C153.701 52.648 152.069 52.336 150.581 51.712C149.093 51.088 147.893 50.104 146.981 48.76C146.117 47.368 145.685 45.568 145.685 43.36V21.688H140.717V14.272H145.685V2.032H155.333V14.272H163.253V21.688H155.333V40.12C155.381 41.416 155.741 42.352 156.413 42.928C157.085 43.504 157.925 43.792 158.933 43.792C159.941 43.792 160.925 43.624 161.885 43.288C162.845 42.952 163.613 42.664 164.189 42.424L166.133 50.056ZM170.942 52V41.632H178.862V52H170.942Z" fill="#1b1b1b"/>
</svg>
